<svg width="1000" height="260" viewBox="0 0 1000 260" xmlns="http://www.w3.org/2000/svg">
  <defs>
    <linearGradient id="bgGrad" x1="0%" y1="0%" x2="100%" y2="100%">
      <stop offset="0%" stop-color="#0f172a"/>
      <stop offset="55%" stop-color="#0b1224"/>
      <stop offset="100%" stop-color="#0a0f1f"/>
    </linearGradient>
    <linearGradient id="accentGrad" x1="0%" y1="0%" x2="100%" y2="0%">
      <stop offset="0%" stop-color="#38BDF8"/>
      <stop offset="100%" stop-color="#818CF8"/>
    </linearGradient>
    <radialGradient id="glow" cx="50%" cy="50%" r="50%">
      <stop offset="0%" stop-color="#38BDF8" stop-opacity="0.25"/>
      <stop offset="100%" stop-color="#38BDF8" stop-opacity="0"/>
    </radialGradient>
    <pattern id="grid" width="36" height="36" patternUnits="userSpaceOnUse">
      <path d="M 36 0 L 0 0 0 36" fill="none" stroke="#1e293b" stroke-width="1"/>
    </pattern>
  </defs>

  <rect width="1000" height="260" fill="url(#bgGrad)"/>
  <rect width="1000" height="260" fill="url(#grid)" opacity="0.4"/>
  <circle cx="840" cy="70" r="180" fill="url(#glow)"/>
  <circle cx="120" cy="220" r="140" fill="url(#glow)"/>

  <line x1="0" y1="0" x2="1000" y2="0" stroke="url(#accentGrad)" stroke-width="3"/>

  <text x="60" y="108" font-family="'Segoe UI', Helvetica, Arial, sans-serif" font-size="42" font-weight="700" fill="#F8FAFC">
    Jaspreet Singh
  </text>
  <text x="60" y="145" font-family="'Segoe UI', Helvetica, Arial, sans-serif" font-size="19" fill="#94A3B8">
    AI &amp; ML Engineer · Computer Vision · Building real-world AI systems
  </text>

  <g transform="translate(60, 175)">
    <rect x="0" y="0" width="150" height="30" rx="15" fill="#111827" stroke="#334155"/>
    <circle cx="18" cy="15" r="5" fill="#38BDF8"/>
    <text x="32" y="20" font-family="'Segoe UI', Helvetica, Arial, sans-serif" font-size="13" fill="#CBD5E1">Computer Vision</text>

    <rect x="160" y="0" width="120" height="30" rx="15" fill="#111827" stroke="#334155"/>
    <circle cx="178" cy="15" r="5" fill="#818CF8"/>
    <text x="192" y="20" font-family="'Segoe UI', Helvetica, Arial, sans-serif" font-size="13" fill="#CBD5E1">Remote Sensing</text>

    <rect x="290" y="0" width="100" height="30" rx="15" fill="#111827" stroke="#334155"/>
    <circle cx="308" cy="15" r="5" fill="#34D399"/>
    <text x="322" y="20" font-family="'Segoe UI', Helvetica, Arial, sans-serif" font-size="13" fill="#CBD5E1">AI Agents</text>
  </g>

  <g transform="translate(760, 60)" opacity="0.9">
    <circle cx="60" cy="60" r="58" fill="none" stroke="#1e293b" stroke-width="2"/>
    <circle cx="60" cy="60" r="58" fill="none" stroke="url(#accentGrad)" stroke-width="3" stroke-dasharray="280" stroke-dashoffset="60" stroke-linecap="round" transform="rotate(-90 60 60)"/>
    <text x="60" y="55" text-anchor="middle" font-family="'Segoe UI', Helvetica, Arial, sans-serif" font-size="22" font-weight="700" fill="#F8FAFC">8.70</text>
    <text x="60" y="75" text-anchor="middle" font-family="'Segoe UI', Helvetica, Arial, sans-serif" font-size="11" fill="#94A3B8">CGPA</text>
  </g>

  <line x1="0" y1="259" x2="1000" y2="259" stroke="url(#accentGrad)" stroke-width="3"/>
</svg>
